<?xml version="1.0" encoding="UTF-8"?>
<svg version="1.1" xmlns="http://www.w3.org/2000/svg" width="314" height="60">
    <path d="M0 0 C5.10466824 2.30115203 8.81913602 5.72268473 12.5625 9.8125 C15.09469537 12.51113075 16.74829803 13.48444011 20.4375 13.9375 C22.2009375 13.9684375 22.2009375 13.9684375 24 14 C22.125 18.75 22.125 18.75 21 21 C22.485 21.495 22.485 21.495 24 22 C23.6875 24.375 23.6875 24.375 23 27 C22.01 27.66 21.02 28.32 20 29 C21.485 29.495 21.485 29.495 23 30 C21.95125002 32.62187494 21.35068687 33.79371361 18.875 35.25 C18.25625 35.4975 17.6375 35.745 17 36 C18.98 36.495 18.98 36.495 21 37 C20.6875 38.875 20.6875 38.875 20 41 C16.30247692 43.46501539 13.47451694 43.29570059 9.19555664 43.29052734 C8.0048481 43.30060318 8.0048481 43.30060318 6.79008484 43.31088257 C4.16337849 43.32989623 1.53692715 43.33378832 -1.08984375 43.3359375 C-2.91443487 43.34236265 -4.73902495 43.3490908 -6.56361389 43.35610962 C-10.3893574 43.3680905 -14.21501054 43.37178957 -18.04077148 43.37060547 C-22.94491753 43.37040213 -27.84848501 43.39771558 -32.75249386 43.43214989 C-36.52115037 43.45437756 -40.28966668 43.4584443 -44.05838203 43.45738602 C-45.86651162 43.45974778 -47.67464474 43.46860358 -49.48270988 43.48405075 C-52.01094071 43.50362939 -54.53791135 43.49790557 -57.06616211 43.48583984 C-58.18766159 43.50269836 -58.18766159 43.50269836 -59.33181763 43.51989746 C-62.83020799 43.47743341 -64.67786328 43.24592198 -67.49586487 41.09463501 C-69 39 -69 39 -69 37 C-68.01 36.505 -68.01 36.505 -67 36 C-68.32 35.01 -69.64 34.02 -71 33 C-70.773125 32.401875 -70.54625 31.80375 -70.3125 31.1875 C-70.209375 30.465625 -70.10625 29.74375 -70 29 C-70.97850195 27.97895449 -71.97980427 26.9793879 -73 26 C-73 24.68 -73 23.36 -73 22 C-72.01 21.67 -71.02 21.34 -70 21 C-70.66 19.35 -71.32 17.7 -72 16 C-71.1646875 15.83177734 -71.1646875 15.83177734 -70.3125 15.66015625 C-63.87615884 13.99670997 -61.00384562 11.14250501 -56.8203125 6.09765625 C-53.72958154 2.53601993 -51.05064266 1.23980529 -46.39453125 0.6953125 C-40.34176334 0.41758766 -36.73249018 0.92785729 -32 5 C-31.44183594 5.43183594 -30.88367187 5.86367187 -30.30859375 6.30859375 C-28.81873709 7.47351647 -27.40240822 8.73115447 -26 10 C-26 10.66 -26 11.32 -26 12 C-25.50371094 11.55269531 -25.00742187 11.10539062 -24.49609375 10.64453125 C-22.35243609 8.73679797 -20.17765381 6.86876675 -18 5 C-17.43796875 4.47921875 -16.8759375 3.9584375 -16.296875 3.421875 C-11.34809686 -0.75816091 -6.28227662 -1.23875877 0 0 Z M-43 8 C-43 8.33 -43 8.66 -43 9 C-40.03 9 -37.06 9 -34 9 C-34 8.67 -34 8.34 -34 8 C-36.97 8 -39.94 8 -43 8 Z M-10 8 C-10 8.33 -10 8.66 -10 9 C-8.35 9 -6.7 9 -5 9 C-5 8.67 -5 8.34 -5 8 C-6.65 8 -8.3 8 -10 8 Z M-46 9 C-46.680625 9.804375 -47.36125 10.60875 -48.0625 11.4375 C-52.13033178 14.9860341 -55.75422879 14.8879544 -61 15 C-61 15.33 -61 15.66 -61 16 C-36.91 16 -12.82 16 12 16 C12 15.34 12 14.68 12 14 C11.31292969 13.96261719 10.62585938 13.92523437 9.91796875 13.88671875 C9.01691406 13.82097656 8.11585937 13.75523438 7.1875 13.6875 C5.84751953 13.60048828 5.84751953 13.60048828 4.48046875 13.51171875 C1.69396 12.93686419 0.75864246 12.1793144 -1 10 C-1.66 10.33 -2.32 10.66 -3 11 C-2.34 11.66 -1.68 12.32 -1 13 C-1.61520508 12.99476318 -2.23041016 12.98952637 -2.86425781 12.98413086 C-5.65949476 12.96330629 -8.45471536 12.95032241 -11.25 12.9375 C-12.21808594 12.92912109 -13.18617187 12.92074219 -14.18359375 12.91210938 C-15.11816406 12.90888672 -16.05273438 12.90566406 -17.015625 12.90234375 C-18.30388184 12.89448853 -18.30388184 12.89448853 -19.61816406 12.88647461 C-21.99148348 12.91790386 -21.99148348 12.91790386 -24.18652344 13.56860352 C-26 14 -26 14 -28 13 C-31.04173894 12.83329727 -31.04173894 12.83329727 -34 13 C-34.33 13.33 -34.66 13.66 -35 14 C-37.01594582 14.23427778 -39.038474 14.41336124 -41.0625 14.5625 C-42.16722656 14.64628906 -43.27195312 14.73007812 -44.41015625 14.81640625 C-45.69212891 14.90728516 -45.69212891 14.90728516 -47 15 C-45.84826645 12.53199953 -44.95216435 10.95216435 -43 9 C-43.99 9 -44.98 9 -46 9 Z M-61 19 C-59.02 19.495 -59.02 19.495 -57 20 C-57 20.66 -57 21.32 -57 22 C-57.99 22.33 -58.98 22.66 -60 23 C-62.30441554 26.45662331 -62.25860135 27.94857881 -62 32 C-61.67 32.66 -61.34 33.32 -61 34 C-60.34 34 -59.68 34 -59 34 C-58.6596875 32.39125 -58.6596875 32.39125 -58.3125 30.75 C-56.83139538 26.51827251 -55.88761964 25.15978869 -52 23 C-48.375 22.8125 -48.375 22.8125 -45 23 C-44.01 22.67 -43.02 22.34 -42 22 C-42.22816406 22.54269531 -42.45632812 23.08539063 -42.69140625 23.64453125 C-43.12259766 24.71767578 -43.12259766 24.71767578 -43.5625 25.8125 C-43.85253906 26.52019531 -44.14257812 27.22789063 -44.44140625 27.95703125 C-45.25063024 30.1735067 -45.25063024 30.1735067 -44 33 C-41.80902348 29.6659053 -40.56545837 26.95820859 -40 23 C-38.35 23 -36.7 23 -35 23 C-34.67 23.66 -34.34 24.32 -34 25 C-33.34 24.34 -32.68 23.68 -32 23 C-31.01 23 -30.02 23 -29 23 C-28.34 23.66 -27.68 24.32 -27 25 C-26.01 24.34 -25.02 23.68 -24 23 C-23.01 23 -22.02 23 -21 23 C-21 25.97 -21 28.94 -21 32 C-20.443125 31.443125 -19.88625 30.88625 -19.3125 30.3125 C-18.549375 29.549375 -17.78625 28.78625 -17 28 C-16.21625 27.071875 -15.4325 26.14375 -14.625 25.1875 C-13.325625 24.1046875 -13.325625 24.1046875 -12 23 C-8.9375 23.3125 -8.9375 23.3125 -6 24 C-3.68019054 23.17657468 -3.68019054 23.17657468 -2 22 C-2.5259375 23.36125 -2.5259375 23.36125 -3.0625 24.75 C-4.00170571 28.00591313 -3.95514676 28.92749994 -3 32 C-1.99406757 30.8803014 -0.9954151 29.7540588 0 28.625 C0.556875 27.99851562 1.11375 27.37203125 1.6875 26.7265625 C3.20172487 25.09610167 3.20172487 25.09610167 3 23 C5.475 22.505 5.475 22.505 8 22 C8.495 27.94 8.495 27.94 9 34 C9.99 33.67 10.98 33.34 12 33 C13.254007 27.80884169 13.254007 27.80884169 11.1875 23.0625 C9.25855409 20.77132904 9.25855409 20.77132904 7 21 C7 20.34 7 19.68 7 19 C-15.44 19 -37.88 19 -61 19 Z M-51 25 C-52.485 28.465 -52.485 28.465 -54 32 C-53.01 32 -52.02 32 -51 32 C-49.5393715 29.35261084 -49 28.10551666 -49 25 C-49.66 25 -50.32 25 -51 25 Z M-11 25 C-12.42944945 27.35438733 -13.08661261 28.48032433 -12.625 31.25 C-12.41875 31.8275 -12.2125 32.405 -12 33 C-9.37613513 29.93882432 -9 29.26826873 -9 25 C-9.66 25 -10.32 25 -11 25 Z M3 28 C2.34 29.32 1.68 30.64 1 32 C1.66 32 2.32 32 3 32 C3 32.66 3 33.32 3 34 C3.99 33.67 4.98 33.34 6 33 C5.34 31.35 4.68 29.7 4 28 C3.67 28 3.34 28 3 28 Z M-35 28 C-37.5654594 30.5654594 -37.54046087 32.47686668 -38 36 C-39.32 36.33 -40.64 36.66 -42 37 C-42.33 36.34 -42.66 35.68 -43 35 C-44.423125 35.2784375 -44.423125 35.2784375 -45.875 35.5625 C-49 36 -49 36 -51 35 C-52.99896911 35.31763653 -52.99896911 35.31763653 -55.125 35.9375 C-56.21167969 36.22947266 -56.21167969 36.22947266 -57.3203125 36.52734375 C-57.87460937 36.68332031 -58.42890625 36.83929688 -59 37 C-59 37.33 -59 37.66 -59 38 C-35.57 38 -12.14 38 12 38 C11.67 38.99 11.34 39.98 11 41 C11.66 41 12.32 41 13 41 C13 39.35 13 37.7 13 36 C11.68 36 10.36 36 9 36 C8.505 35.01 8.505 35.01 8 34 C7.01 34.66 6.02 35.32 5 36 C2.4375 36.25 2.4375 36.25 0 36 C-0.66 35.34 -1.32 34.68 -2 34 C-2.66 34.66 -3.32 35.32 -4 36 C-6.625 36.625 -6.625 36.625 -9 37 C-9.495 35.515 -9.495 35.515 -10 34 C-10.66 34.66 -11.32 35.32 -12 36 C-14.5 36.25 -14.5 36.25 -17 36 C-17.66 35.34 -18.32 34.68 -19 34 C-19.66 34.66 -20.32 35.32 -21 36 C-23.625 36.125 -23.625 36.125 -26 36 C-26 33.36 -26 30.72 -26 28 C-29.26824656 29.72149264 -29.26824656 29.72149264 -29.9375 33.0625 C-30.4634375 34.5165625 -30.4634375 34.5165625 -31 36 C-32.32 36.33 -33.64 36.66 -35 37 C-34.67 34.03 -34.34 31.06 -34 28 C-34.33 28 -34.66 28 -35 28 Z " fill="#EDEDED" transform="translate(75,7)"/>
    <path d="M0 0 C4.08214449 1.36071483 4.80535426 3.45528578 7.0625 7.0625 C8.32347158 9.07488854 9.62464211 11.06398667 11 13 C11.66 13 12.32 13 13 13 C15.14191278 9.9849508 17.06576821 6.85751061 19.02734375 3.72265625 C21 1 21 1 24 0 C24 5.61 24 11.22 24 17 C23.34 17.33 22.68 17.66 22 18 C21.505 11.565 21.505 11.565 21 5 C20.45730469 5.86625 19.91460937 6.7325 19.35546875 7.625 C18.63336581 8.75035523 17.91067917 9.87533607 17.1875 11 C16.12595703 12.670625 16.12595703 12.670625 15.04296875 14.375 C14.36878906 15.24125 13.69460937 16.1075 13 17 C12.01 17 11.02 17 10 17 C8.17578125 14.59375 8.17578125 14.59375 6.3125 11.5 C5.68988281 10.4790625 5.06726563 9.458125 4.42578125 8.40625 C3.95527344 7.6121875 3.48476562 6.818125 3 6 C2.95101562 6.78246094 2.90203125 7.56492187 2.8515625 8.37109375 C2.77679688 9.38300781 2.70203125 10.39492188 2.625 11.4375 C2.55539063 12.44683594 2.48578125 13.45617187 2.4140625 14.49609375 C2.27742187 15.32238281 2.14078125 16.14867188 2 17 C1.34 17.33 0.68 17.66 0 18 C0 12.06 0 6.12 0 0 Z " fill="#FFFFFF" transform="translate(166,10)"/>
    <path d="M0 0 C14.46428571 -0.26785714 14.46428571 -0.26785714 18 2 C18 7 18 12 18 17 C17.34 17 16.68 17 16 17 C16 15.02 16 13.04 16 11 C9.07 10.505 9.07 10.505 2 10 C2 12.31 2 14.62 2 17 C1.34 17.33 0.68 17.66 0 18 C0 12.06 0 6.12 0 0 Z M2 2 C2 3.98 2 5.96 2 8 C3.95825873 8.02694851 5.91662226 8.04637218 7.875 8.0625 C9.51082031 8.07990234 9.51082031 8.07990234 11.1796875 8.09765625 C13.95177546 8.19744303 13.95177546 8.19744303 16 7 C15.67 5.35 15.34 3.7 15 2 C10.71 2 6.42 2 2 2 Z " fill="#FFFFFF" transform="translate(288,10)"/>
    <path d="M0 0 C0.85464844 -0.01675781 1.70929688 -0.03351562 2.58984375 -0.05078125 C5.5046356 0.37745831 6.87576679 1.38959539 9.0625 3.3125 C8.7325 4.3025 8.4025 5.2925 8.0625 6.3125 C7.4025 5.3225 6.7425 4.3325 6.0625 3.3125 C2.93692041 2.94719768 2.93692041 2.94719768 -0.5625 3.125 C-1.75101563 3.15207031 -2.93953125 3.17914063 -4.1640625 3.20703125 C-5.07929688 3.24183594 -5.99453125 3.27664063 -6.9375 3.3125 C-6.9375 4.3025 -6.9375 5.2925 -6.9375 6.3125 C-5.87789062 6.50585938 -4.81828125 6.69921875 -3.7265625 6.8984375 C-2.33846447 7.16105064 -0.95044776 7.42409386 0.4375 7.6875 C1.13617188 7.81382813 1.83484375 7.94015625 2.5546875 8.0703125 C7.8359375 9.0859375 7.8359375 9.0859375 10.0625 11.3125 C10 13.8125 10 13.8125 9.0625 16.3125 C5.21706983 18.68761864 1.48685373 18.7006012 -2.9375 18.3125 C-6.375 16.8125 -6.375 16.8125 -8.9375 15.3125 C-8.6075 13.9925 -8.2775 12.6725 -7.9375 11.3125 C-7.463125 11.9725 -6.98875 12.6325 -6.5 13.3125 C-2.82888503 16.17776046 0.5490048 15.84401198 5.0625 15.3125 C5.7225 14.9825 6.3825 14.6525 7.0625 14.3125 C7.0625 13.6525 7.0625 12.9925 7.0625 12.3125 C6.07507813 12.04695313 5.08765625 11.78140625 4.0703125 11.5078125 C2.77594502 11.15139247 1.48167941 10.79460234 0.1875 10.4375 C-0.78896484 10.17646484 -0.78896484 10.17646484 -1.78515625 9.91015625 C-6.7109375 8.5390625 -6.7109375 8.5390625 -8.9375 6.3125 C-8.75 4.3125 -8.75 4.3125 -7.9375 2.3125 C-4.73125113 0.17500075 -3.71291897 0.01675001 0 0 Z " fill="#FFFFFF" transform="translate(249.9375,9.6875)"/>
    <path d="M0 0 C6.67625018 3.33812509 11.83422638 8.67279595 17 14 C17.33 9.38 17.66 4.76 18 0 C18.66 0 19.32 0 20 0 C20 5.61 20 11.22 20 17 C16.45042562 17 16.11575285 16.51411281 13.64453125 14.15625 C12.71157227 13.27646484 12.71157227 13.27646484 11.75976562 12.37890625 C11.11716797 11.75886719 10.47457031 11.13882812 9.8125 10.5 C8.83120117 9.56994141 8.83120117 9.56994141 7.83007812 8.62109375 C6.21374581 7.08734776 4.60604305 5.54451696 3 4 C2.67 8.62 2.34 13.24 2 18 C1.34 17.67 0.68 17.34 0 17 C0 11.39 0 5.78 0 0 Z " fill="#FFFFFF" transform="translate(217,10)"/>
    <path d="M0 0 C0.66 0 1.32 0 2 0 C2.07347656 1.37285156 2.07347656 1.37285156 2.1484375 2.7734375 C2.22320312 3.96195313 2.29796875 5.15046875 2.375 6.375 C2.44460938 7.55835938 2.51421875 8.74171875 2.5859375 9.9609375 C2.70217346 13.10562319 2.70217346 13.10562319 5 15 C7.14143741 15.28062326 7.14143741 15.28062326 9.5 15.1875 C10.69109375 15.17783203 10.69109375 15.17783203 11.90625 15.16796875 C14.05836391 15.12675836 14.05836391 15.12675836 16 14 C16.39298401 10.98566709 16.39298401 10.98566709 16.5 7.5 C16.65625 3.90625 16.65625 3.90625 17 1 C17.66 0.67 18.32 0.34 19 0 C19.08097324 2.27024968 19.13917704 4.54132075 19.1875 6.8125 C19.23970703 8.70935547 19.23970703 8.70935547 19.29296875 10.64453125 C19 14 19 14 17.67578125 15.88671875 C13.92047891 18.38150003 10.3731821 18.30159877 6 18 C1.4 15.8 1.4 15.8 0 13 C-0.07092842 10.7927077 -0.08415025 8.58332548 -0.0625 6.375 C-0.05347656 5.18648437 -0.04445313 3.99796875 -0.03515625 2.7734375 C-0.02355469 1.85820312 -0.01195312 0.94296875 0 0 Z " fill="#FFFFFF" transform="translate(264,10)"/>
    <path d="M0 0 C2.125 6.75 2.125 6.75 1 9 C-3.25800538 10.41933513 -7.22911538 10.72651677 -11.4375 9 C-11.953125 8.67 -12.46875 8.34 -13 8 C-12.814375 7.38125 -12.62875 6.7625 -12.4375 6.125 C-11.76313824 3.95839822 -11.76313824 3.95839822 -13 2 C-12.67 1.34 -12.34 0.68 -12 0 C-7.8265198 -1.35024359 -4.26066408 -0.7518819 0 0 Z M-11 3 C-7.37 3.33 -3.74 3.66 0 4 C-2.65933926 0.70898779 -2.65933926 0.70898779 -6.0625 0.6875 C-9.12061828 0.70172688 -9.12061828 0.70172688 -11 3 Z M-11 5 C-11 5.66 -11 6.32 -11 7 C-8.04335481 8.4783226 -5.25770263 8.06032783 -2 8 C-1.67 7.34 -1.34 6.68 -1 6 C-4.3 5.67 -7.6 5.34 -11 5 Z " fill="#FFFFFF" transform="translate(169,40)"/>
    <path d="M0 0 C3.32366742 3.05099404 5.54224226 6.23449516 7.8125 10.125 C8.43769531 11.17945313 9.06289062 12.23390625 9.70703125 13.3203125 C10.13371094 14.20460938 10.56039062 15.08890625 11 16 C10.67 16.66 10.34 17.32 10 18 C9.5875 17.195625 9.175 16.39125 8.75 15.5625 C4.47845677 11.58219835 -0.35389564 12.09765275 -6 12 C-6.28875 12.804375 -6.5775 13.60875 -6.875 14.4375 C-8 17 -8 17 -10 18 C-9.35432804 13.91410713 -7.17203433 10.74142833 -5 7.3125 C-4.63132813 6.71888672 -4.26265625 6.12527344 -3.8828125 5.51367188 C-1.16636588 1.16636588 -1.16636588 1.16636588 0 0 Z M0 3 C-2.91171789 6.66980204 -2.91171789 6.66980204 -4 11 C-1.03 11 1.94 11 5 11 C3.8141763 7.62496331 2.72426311 5.35277269 0 3 Z " fill="#FFFFFF" transform="translate(203,10)"/>
    <path d="M0 0 C4.15872775 1.38624258 5.21825071 4.23962002 7.25 7.875 C7.62640625 8.51308594 8.0028125 9.15117187 8.390625 9.80859375 C9.34698237 11.4927672 10.18210099 13.24440869 11 15 C10.67 15.99 10.34 16.98 10 18 C7 14.25 7 14.25 7 12 C-1.06228057 11.83992555 -1.06228057 11.83992555 -7.75 15.5625 C-8.1625 16.366875 -8.575 17.17125 -9 18 C-9.33 17.34 -9.66 16.68 -10 16 C-9.19555664 14.30419922 -9.19555664 14.30419922 -7.91015625 12.3046875 C-7.45576172 11.58925781 -7.00136719 10.87382812 -6.53320312 10.13671875 C-6.04787109 9.39035156 -5.56253906 8.64398438 -5.0625 7.875 C-4.58103516 7.12089844 -4.09957031 6.36679687 -3.60351562 5.58984375 C-2.40942203 3.72185575 -1.20805232 1.85897934 0 0 Z M0 3 C-1.32 5.64 -2.64 8.28 -4 11 C-0.7 11 2.6 11 6 11 C4.68 8.36 3.36 5.72 2 3 C1.34 3 0.68 3 0 3 Z " fill="#FFFFFF" transform="translate(119,10)"/>
    <path d="M0 0 C4.29 0 8.58 0 13 0 C13 0.33 13 0.66 13 1 C9.37 1 5.74 1 2 1 C2 1.66 2 2.32 2 3 C4.97 3 7.94 3 11 3 C11.33 3.66 11.66 4.32 12 5 C8.7 5 5.4 5 2 5 C2 5.99 2 6.98 2 8 C5.63 8 9.26 8 13 8 C13 8.66 13 9.32 13 10 C11.02090602 10.02686553 9.04171029 10.04633375 7.0625 10.0625 C5.96035156 10.07410156 4.85820312 10.08570313 3.72265625 10.09765625 C1 10 1 10 0 9 C-0.14193337 5.99668982 -0.04236378 3.00782866 0 0 Z " fill="#FFFFFF" transform="translate(241,40)"/>
    <path d="M0 0 C4.29 0 8.58 0 13 0 C13 0.33 13 0.66 13 1 C9.37 1 5.74 1 2 1 C2 1.66 2 2.32 2 3 C4.97 3 7.94 3 11 3 C11 3.66 11 4.32 11 5 C8.03 5 5.06 5 2 5 C2 5.99 2 6.98 2 8 C5.63 8 9.26 8 13 8 C12.67 8.66 12.34 9.32 12 10 C8.04 10 4.08 10 0 10 C0 6.7 0 3.4 0 0 Z " fill="#FFFFFF" transform="translate(173,40)"/>
    <path d="M0 0 C4.29 0 8.58 0 13 0 C13.82810826 3.31243305 14.09278428 5.65976579 14 9 C13.01 9.495 13.01 9.495 12 10 C12 8.68 12 7.36 12 6 C8.7 6 5.4 6 2 6 C1.67 7.32 1.34 8.64 1 10 C0.67 10 0.34 10 0 10 C0 6.7 0 3.4 0 0 Z M2 1 C2 1.99 2 2.98 2 4 C6.0100934 4.17864631 6.0100934 4.17864631 10 4 C10.66 3.34 11.32 2.68 12 2 C9.71294169 0.85647084 8.40735238 0.89665561 5.875 0.9375 C3.956875 0.9684375 3.956875 0.9684375 2 1 Z " fill="#FFFFFF" transform="translate(187,40)"/>
    <path d="M0 0 C4.29 0 8.58 0 13 0 C13.82810826 3.31243305 14.09278428 5.65976579 14 9 C13.01 9.495 13.01 9.495 12 10 C12 8.68 12 7.36 12 6 C8.7 6 5.4 6 2 6 C1.67 7.32 1.34 8.64 1 10 C0.67 10 0.34 10 0 10 C0 6.7 0 3.4 0 0 Z M2 1 C2 1.99 2 2.98 2 4 C6.0100934 4.17864631 6.0100934 4.17864631 10 4 C10.66 3.34 11.32 2.68 12 2 C9.71294169 0.85647084 8.40735238 0.89665561 5.875 0.9375 C3.956875 0.9684375 3.956875 0.9684375 2 1 Z " fill="#FFFFFF" transform="translate(131,40)"/>
    <path d="M0 0 C1.93681161 -0.08107583 3.8745934 -0.13922475 5.8125 -0.1875 C6.89144531 -0.22230469 7.97039062 -0.25710937 9.08203125 -0.29296875 C12 0 12 0 13.8984375 1.3828125 C15 3 15 3 14.8125 5.0625 C14 7 14 7 12 9 C8.15899602 10.47730922 4.04749486 10.06745825 0 10 C0 6.7 0 3.4 0 0 Z M2 1 C2 3.31 2 5.62 2 8 C7.7974423 8.24428343 7.7974423 8.24428343 13 6 C12.67 4.68 12.34 3.36 12 2 C8.7 1.67 5.4 1.34 2 1 Z " fill="#FFFFFF" transform="translate(292,40)"/>
    <path d="M0 0 C0.33 0.99 0.66 1.98 1 3 C0.39671875 2.91621094 -0.2065625 2.83242188 -0.828125 2.74609375 C-2.02695313 2.59333984 -2.02695313 2.59333984 -3.25 2.4375 C-4.03890625 2.33308594 -4.8278125 2.22867188 -5.640625 2.12109375 C-8.00532874 1.99972651 -9.7511037 2.30366743 -12 3 C-12 3.99 -12 4.98 -12 6 C-11.09507812 6.09087891 -11.09507812 6.09087891 -10.171875 6.18359375 C-9.37265625 6.26738281 -8.5734375 6.35117187 -7.75 6.4375 C-6.56664062 6.55931641 -6.56664062 6.55931641 -5.359375 6.68359375 C-3.17635361 6.97634993 -1.1226818 7.42064419 1 8 C-2.08845668 9.8291543 -4.01270749 10.2064877 -7.5625 9.75 C-8.70912109 9.61851563 -8.70912109 9.61851563 -9.87890625 9.484375 C-12 9 -12 9 -15 7 C-14.25 2.25 -14.25 2.25 -12 0 C-7.80811428 -1.3174498 -4.27717389 -0.75479539 0 0 Z " fill="#FFFFFF" transform="translate(238,40)"/>
    <path d="M0 0 C0.66 0 1.32 0 2 0 C2 5.28 2 10.56 2 16 C6.62 16 11.24 16 16 16 C16 16.66 16 17.32 16 18 C13.52076199 18.02685095 11.0418116 18.04676547 8.5625 18.0625 C7.85544922 18.07087891 7.14839844 18.07925781 6.41992188 18.08789062 C4.61306441 18.09653588 2.80612397 18.05220011 1 18 C0 17 0 17 -0.09765625 13.18359375 C-0.09098089 11.60153318 -0.07901875 10.01948841 -0.0625 8.4375 C-0.05798828 7.63119141 -0.05347656 6.82488281 -0.04882812 5.99414062 C-0.03700518 3.99606244 -0.01906914 1.99802217 0 0 Z " fill="#FFFFFF" transform="translate(133,10)"/>
    <path d="M0 0 C2.72574271 0.37330824 3.80822085 0.79194601 5.703125 2.84765625 C6.21359375 3.57855469 6.7240625 4.30945312 7.25 5.0625 C7.77078125 5.79597656 8.2915625 6.52945313 8.828125 7.28515625 C9.21484375 7.85105469 9.6015625 8.41695312 10 9 C9.01 9 8.02 9 7 9 C6.67 8.67 6.34 8.34 6 8 C3.96618256 7.80034595 3.96618256 7.80034595 1.625 7.8125 C0.43777344 7.79123047 0.43777344 7.79123047 -0.7734375 7.76953125 C-3.28731333 7.85492491 -3.28731333 7.85492491 -6 10 C-6 6.41087588 -5.33563446 5.89142971 -3 3.3125 C-2.443125 2.68988281 -1.88625 2.06726562 -1.3125 1.42578125 C-0.879375 0.95527344 -0.44625 0.48476563 0 0 Z M1 2 C0.01 3.485 0.01 3.485 -1 5 C0.65 5 2.3 5 4 5 C3.01 4.01 2.02 3.02 1 2 Z " fill="#FFFFFF" transform="translate(116,40)"/>
    <path d="M0 0 C0.33 0 0.66 0 1 0 C1 14.52 1 29.04 1 44 C0.67 44 0.34 44 0 44 C0 29.48 0 14.96 0 0 Z " fill="#FFFFFF" transform="translate(103,8)"/>
    <path d="M0 0 C2.86697492 1.28519565 4.97607712 2.57129254 7 5 C7 5.66 7 6.32 7 7 C7.7425 6.21625 8.485 5.4325 9.25 4.625 C11.54433318 2.43495469 13.12158858 1.17268614 16 0 C10.85046729 7.81308411 10.85046729 7.81308411 9 10 C8.34 10 7.68 10 7 10 C5.2734375 8.06640625 5.2734375 8.06640625 3.375 5.5625 C2.74335938 4.73878906 2.11171875 3.91507813 1.4609375 3.06640625 C0 1 0 1 0 0 Z " fill="#FFFFFF" transform="translate(202,40)"/>
    <path d="M0 0 C4.95 0 9.9 0 15 0 C15 0.33 15 0.66 15 1 C13.02 1 11.04 1 9 1 C9 3.64 9 6.28 9 9 C8.01 9 7.02 9 6 9 C6 6.36 6 3.72 6 1 C4.02 1 2.04 1 0 1 C0 0.67 0 0.34 0 0 Z " fill="#FFFFFF" transform="translate(276,40)"/>
    <path d="M0 0 C0.66 0 1.32 0 2 0 C2 2.64 2 5.28 2 8 C5.3 8 8.6 8 12 8 C12 8.66 12 9.32 12 10 C8.04 10 4.08 10 0 10 C0 6.7 0 3.4 0 0 Z " fill="#FFFFFF" transform="translate(265,40)"/>
    <path d="M0 0 C0.66 0 1.32 0 2 0 C2 2.97 2 5.94 2 9 C1.01 9.495 1.01 9.495 0 10 C0 6.7 0 3.4 0 0 Z " fill="#FFFFFF" transform="translate(219,40)"/>
    <path d="M0 0 C0.66 0 1.32 0 2 0 C2 2.97 2 5.94 2 9 C1.01 9.495 1.01 9.495 0 10 C0 6.7 0 3.4 0 0 Z " fill="#FFFFFF" transform="translate(127,40)"/>
</svg>
